<svg width="16" height="16" viewBox="0 0 16 16" fill="none" xmlns="http://www.w3.org/2000/svg">
<path fill-rule="evenodd" clip-rule="evenodd" d="M8.46875 0.5C6.98539 0.5 5.53535 0.939867 4.30198 1.76398C3.06861 2.58809 2.10731 3.75943 1.53966 5.12987C0.972 6.50032 0.823475 8.00832 1.11286 9.46318C1.40225 10.918 2.11656 12.2544 3.16545 13.3033C4.21435 14.3522 5.55072 15.0665 7.00558 15.3559C8.46043 15.6453 9.96843 15.4968 11.3389 14.9291C12.7093 14.3614 13.8807 13.4001 14.7048 12.1668C15.5289 10.9334 15.9688 9.48336 15.9688 8C15.9688 7.01509 15.7748 6.03982 15.3979 5.12987C15.0209 4.21993 14.4685 3.39314 13.7721 2.6967C13.0756 2.00026 12.2488 1.44781 11.3389 1.0709C10.4289 0.693993 9.45367 0.5 8.46875 0.5ZM11.1163 10.6475C11.0641 10.6998 11.0022 10.7414 10.934 10.7697C10.8658 10.798 10.7926 10.8126 10.7188 10.8126C10.6449 10.8126 10.5718 10.798 10.5035 10.7697C10.4353 10.7414 10.3734 10.6998 10.3213 10.6475L8.07125 8.3975C8.01891 8.34539 7.97738 8.28344 7.94906 8.21523C7.92074 8.14701 7.9062 8.07386 7.90625 8V4.25C7.90625 4.10082 7.96552 3.95774 8.07101 3.85225C8.1765 3.74676 8.31957 3.6875 8.46875 3.6875C8.61794 3.6875 8.76101 3.74676 8.8665 3.85225C8.97199 3.95774 9.03125 4.10082 9.03125 4.25V7.76675L11.1163 9.8525C11.1685 9.90467 11.21 9.96664 11.2382 10.0348C11.2665 10.103 11.2811 10.1762 11.2811 10.25C11.2811 10.3238 11.2665 10.397 11.2382 10.4652C11.21 10.5334 11.1685 10.5953 11.1163 10.6475Z" fill="#D9D9D9"/>
</svg>
