<svg width="24" height="24" viewBox="0 0 24 24" fill="none" xmlns="http://www.w3.org/2000/svg">
<g clip-path="url(#clip0_1054_81710)">
<path d="M7.16008 4.19536C7.82758 3.75047 8.22588 2.9123 8.22588 2.11018C8.22588 1.30805 7.82758 0.563679 7.16008 0.118695C6.83524 -0.0976322 6.39921 -0.00969491 6.18494 0.313695C5.96927 0.637132 6.05721 1.07391 6.37994 1.28883C6.65946 1.47493 6.81944 1.77432 6.81944 2.11018C6.81944 2.44603 6.65946 2.83917 6.37994 3.02527C5.71244 3.4702 5.31415 4.21462 5.31415 5.0167C5.31415 5.81878 5.71244 6.5632 6.37994 7.00818C6.70896 7.22634 7.14316 7.13151 7.35508 6.81318C7.57075 6.48975 7.48347 6.05367 7.16003 5.83804C6.88052 5.65195 6.72054 5.35256 6.72054 5.0167C6.72058 4.68084 6.88061 4.38145 7.16008 4.19536ZM10.6761 4.19536C11.3436 3.75047 11.7419 2.9123 11.7419 2.11018C11.7419 1.30805 11.3436 0.563679 10.6761 0.118695C10.3506 -0.0976322 9.91525 -0.00969491 9.70098 0.313695C9.48531 0.637132 9.57325 1.07391 9.89598 1.28883C10.1755 1.47493 10.3355 1.77432 10.3355 2.11018C10.3355 2.44603 10.1755 2.83917 9.89598 3.02527C9.22848 3.4702 8.83019 4.21462 8.83019 5.0167C8.83019 5.81878 9.22848 6.5632 9.89598 7.00818C10.225 7.22634 10.6592 7.13151 10.8711 6.81318C11.0868 6.48975 10.9995 6.05367 10.6761 5.83804C10.3966 5.65195 10.2366 5.35256 10.2366 5.0167C10.2366 4.68084 10.3966 4.38145 10.6761 4.19536ZM14.1921 4.19536C14.8596 3.75038 15.2579 2.91221 15.2579 2.11013C15.2584 1.71602 15.1613 1.32792 14.9753 0.98044C14.7893 0.63296 14.5203 0.336897 14.1921 0.118649C13.8666 -0.0976791 13.4319 -0.00974179 13.217 0.313648C13.0013 0.637085 13.0892 1.07387 13.412 1.28879C13.6915 1.47488 13.8515 1.77427 13.8515 2.11013C13.8515 2.44599 13.6915 2.83913 13.412 3.02522C12.7445 3.4702 12.3462 4.21462 12.3462 5.0167C12.3462 5.81878 12.7445 6.5632 13.412 7.00818C13.741 7.22634 14.1752 7.13151 14.3871 6.81318C14.6028 6.48975 14.5155 6.05367 14.1921 5.83804C13.9126 5.65195 13.7526 5.35256 13.7526 5.0167C13.7526 4.68084 13.9126 4.38145 14.1921 4.19536ZM22.4129 11.6567C21.7735 10.5662 20.5965 9.88911 19.3419 9.88911H17.9863V9.1859C17.9863 8.79721 17.6718 8.48268 17.2831 8.48268H3.21903C2.83034 8.48263 2.51581 8.79716 2.51581 9.18585V13.6461C2.51581 14.7689 2.69707 15.9228 3.05557 16.9831C3.43601 18.1129 4.14129 19.0626 5.03721 19.7808H15.4649C15.9673 19.3781 16.4004 18.8956 16.7592 18.3564C19.3348 18.2636 21.3084 17.091 22.4665 15.0169C23.0523 13.9683 23.0323 12.7122 22.4129 11.6567ZM21.2386 14.3314C20.4368 15.7663 19.1678 16.6488 17.4701 16.8882C17.808 15.8563 17.9863 14.736 17.9863 13.6461V11.2955H19.3418C20.111 11.2955 20.8059 11.6965 21.2001 12.3688C21.5696 12.9986 21.5834 13.7135 21.2386 14.3314ZM18.6895 21.1872H1.81259C1.42423 21.1872 1.10938 21.502 1.10938 21.8904C1.10938 23.0555 2.05386 24 3.21898 24H17.283C18.4482 24 19.3927 23.0555 19.3927 21.8904C19.3927 21.502 19.0778 21.1872 18.6895 21.1872Z" fill="#009B78"/>
</g>
<defs>
<clipPath id="clip0_1054_81710">
<rect width="24" height="24" fill="white"/>
</clipPath>
</defs>
</svg>
