<svg width="24" height="24" viewBox="0 0 24 24" fill="none" xmlns="http://www.w3.org/2000/svg">
<path d="M17 2.25H7C6.27082 2.25053 5.57165 2.54043 5.05604 3.05604C4.54043 3.57165 4.25053 4.27082 4.25 5V19C4.25053 19.7292 4.54043 20.4283 5.05604 20.944C5.57165 21.4596 6.27082 21.7495 7 21.75H17C17.7292 21.7495 18.4283 21.4596 18.944 20.944C19.4596 20.4283 19.7495 19.7292 19.75 19V5C19.7495 4.27082 19.4596 3.57165 18.944 3.05604C18.4283 2.54043 17.7292 2.25053 17 2.25ZM12 14.75H8C7.80109 14.75 7.61032 14.671 7.46967 14.5303C7.32902 14.3897 7.25 14.1989 7.25 14C7.25 13.8011 7.32902 13.6103 7.46967 13.4697C7.61032 13.329 7.80109 13.25 8 13.25H12C12.1989 13.25 12.3897 13.329 12.5303 13.4697C12.671 13.6103 12.75 13.8011 12.75 14C12.75 14.1989 12.671 14.3897 12.5303 14.5303C12.3897 14.671 12.1989 14.75 12 14.75ZM16 11.25H8C7.80109 11.25 7.61032 11.171 7.46967 11.0303C7.32902 10.8897 7.25 10.6989 7.25 10.5C7.25 10.3011 7.32902 10.1103 7.46967 9.96967C7.61032 9.82902 7.80109 9.75 8 9.75H16C16.1989 9.75 16.3897 9.82902 16.5303 9.96967C16.671 10.1103 16.75 10.3011 16.75 10.5C16.75 10.6989 16.671 10.8897 16.5303 11.0303C16.3897 11.171 16.1989 11.25 16 11.25ZM16 7.75H8C7.80109 7.75 7.61032 7.67098 7.46967 7.53033C7.32902 7.38968 7.25 7.19891 7.25 7C7.25 6.80109 7.32902 6.61032 7.46967 6.46967C7.61032 6.32902 7.80109 6.25 8 6.25H16C16.1989 6.25 16.3897 6.32902 16.5303 6.46967C16.671 6.61032 16.75 6.80109 16.75 7C16.75 7.19891 16.671 7.38968 16.5303 7.53033C16.3897 7.67098 16.1989 7.75 16 7.75Z" fill="#009B78"/>
</svg>
