<svg width="24" height="24" viewBox="0 0 24 24" fill="none" xmlns="http://www.w3.org/2000/svg">
<rect width="24" height="24" rx="12" fill="#F0F9F5"/>
<path d="M4 12.0002C4 12.2655 4.10536 12.5198 4.29289 12.7074C4.48043 12.8949 4.73478 13.0002 5 13.0002C5.26522 13.0002 5.51957 12.8949 5.70711 12.7074C5.89464 12.5198 6 12.2655 6 12.0002C6 11.735 5.89464 11.4807 5.70711 11.2931C5.51957 11.1056 5.26522 11.0002 5 11.0002C4.73478 11.0002 4.48043 11.1056 4.29289 11.2931C4.10536 11.4807 4 11.735 4 12.0002ZM11 12.0002C11 12.2655 11.1054 12.5198 11.2929 12.7074C11.4804 12.8949 11.7348 13.0002 12 13.0002C12.2652 13.0002 12.5196 12.8949 12.7071 12.7074C12.8946 12.5198 13 12.2655 13 12.0002C13 11.735 12.8946 11.4807 12.7071 11.2931C12.5196 11.1056 12.2652 11.0002 12 11.0002C11.7348 11.0002 11.4804 11.1056 11.2929 11.2931C11.1054 11.4807 11 11.735 11 12.0002ZM18 12.0002C18 12.2655 18.1054 12.5198 18.2929 12.7074C18.4804 12.8949 18.7348 13.0002 19 13.0002C19.2652 13.0002 19.5196 12.8949 19.7071 12.7074C19.8946 12.5198 20 12.2655 20 12.0002C20 11.735 19.8946 11.4807 19.7071 11.2931C19.5196 11.1056 19.2652 11.0002 19 11.0002C18.7348 11.0002 18.4804 11.1056 18.2929 11.2931C18.1054 11.4807 18 11.735 18 12.0002Z" fill="#009B78" stroke="#009B78" stroke-width="1.25" stroke-linecap="round" stroke-linejoin="round"/>
</svg>
