<svg width="24" height="22" viewBox="0 0 24 22" fill="none" xmlns="http://www.w3.org/2000/svg">
<path d="M21 9.50003C20.6981 9.50012 20.4033 9.40859 20.1545 9.23753L11.5 3.31753L2.84702 9.23753C2.51869 9.46217 2.11456 9.54718 1.72355 9.47385C1.33253 9.40052 0.986662 9.17487 0.762024 8.84653C0.537386 8.5182 0.45238 8.11407 0.525706 7.72305C0.599033 7.33204 0.824686 6.98617 1.15302 6.76153L10.653 0.261533C10.9025 0.0908426 11.1977 -0.000488281 11.5 -0.000488281C11.8023 -0.000488281 12.0975 0.0908426 12.347 0.261533L21.847 6.76153C22.1117 6.94237 22.3115 7.20323 22.4171 7.50587C22.5227 7.80852 22.5285 8.13703 22.4338 8.44326C22.3391 8.74949 22.1488 9.01732 21.8908 9.2075C21.6327 9.39767 21.3206 9.5002 21 9.50003ZM23 18.035V20.5C22.9988 20.8975 22.8404 21.2783 22.5594 21.5594C22.2783 21.8404 21.8975 21.9988 21.5 22H15.5C15.1026 21.9988 14.7217 21.8404 14.4407 21.5594C14.1596 21.2783 14.0012 20.8975 14 20.5V18.035L14.065 18.05L17.745 18.87C17.9931 18.9238 18.2462 18.9506 18.5 18.95C18.7555 18.9504 19.0102 18.9236 19.26 18.87L22.935 18.05L23 18.035Z" fill="#009B78"/>
<path d="M14 13.5V13.712C14.3149 13.5725 14.6555 13.5003 15 13.5H15.5635C15.6747 13.0709 15.9252 12.6909 16.2757 12.4194C16.6261 12.148 17.0567 12.0005 17.5 12H19.5V10.005L11.5 4.53003L3.5 10.005V18C3.5 18.6631 3.76339 19.299 4.23223 19.7678C4.70107 20.2366 5.33696 20.5 6 20.5H9V13.5C9.00079 13.2351 9.1064 12.9812 9.29377 12.7938C9.48113 12.6064 9.73503 12.5008 10 12.5H13C13.265 12.5008 13.5189 12.6064 13.7062 12.7938C13.8936 12.9812 13.9992 13.2351 14 13.5Z" fill="#009B78"/>
<path d="M22 14.5H20.5V14C20.5 13.7348 20.3946 13.4804 20.2071 13.2929C20.0196 13.1054 19.7652 13 19.5 13H17.5C17.2348 13 16.9804 13.1054 16.7929 13.2929C16.6054 13.4804 16.5 13.7348 16.5 14V14.5H15C14.6022 14.5 14.2206 14.658 13.9393 14.9393C13.658 15.2206 13.5 15.6022 13.5 16V16.1C13.5 16.3275 13.5776 16.5482 13.72 16.7256C13.8623 16.903 14.0609 17.0266 14.283 17.076L17.9575 17.893C18.3148 17.9723 18.6852 17.9723 19.0425 17.893L22.717 17.076C22.9391 17.0266 23.1377 16.903 23.28 16.7256C23.4224 16.5482 23.5 16.3275 23.5 16.1V16C23.5 15.6022 23.342 15.2206 23.0607 14.9393C22.7794 14.658 22.3978 14.5 22 14.5ZM17.5 14.5V14H19.5V14.5H17.5Z" fill="#009B78"/>
</svg>
