<svg width="84" height="74" viewBox="0 0 84 74" fill="none" xmlns="http://www.w3.org/2000/svg">
<path d="M22.208 29.7122C22.208 27.9872 23.608 26.5872 25.333 26.5872H58.6663C60.3913 26.5872 61.7913 27.9872 61.7913 29.7122C61.7913 31.4372 60.3913 32.8372 58.6663 32.8372H25.333C23.608 32.8372 22.208 31.4372 22.208 29.7122ZM29.4997 20.3372H54.4997C56.2247 20.3372 57.6247 18.9372 57.6247 17.2122C57.6247 15.4872 56.2247 14.0872 54.4997 14.0872H29.4997C27.7747 14.0872 26.3747 15.4872 26.3747 17.2122C26.3747 18.9372 27.7747 20.3372 29.4997 20.3372ZM83.6663 44.2417V54.7122C83.6663 65.0497 75.2538 73.4622 64.9163 73.4622H19.083C8.74551 73.4622 0.333008 65.0497 0.333008 54.7122V44.2417C0.333008 42.4417 0.620579 40.6662 1.18725 38.9662L9.24973 14.7871C12.0914 6.26628 20.033 0.541504 29.0122 0.541504H54.9872C63.9664 0.541504 71.9121 6.26628 74.7496 14.7871L82.8121 38.9662C83.3788 40.6662 83.6663 42.4458 83.6663 44.2417ZM9.58721 40.1289H29.4997C30.6497 40.1289 31.583 41.0622 31.583 42.2122C31.583 47.9581 36.258 52.6289 41.9997 52.6289C47.7413 52.6289 52.4163 47.9581 52.4163 42.2122C52.4163 41.0622 53.3497 40.1289 54.4997 40.1289H74.4121L66.8456 17.4289C65.1414 12.3122 60.3747 8.87891 54.9872 8.87891H29.0122C23.6247 8.87891 18.858 12.3122 17.1538 17.4289L9.58721 40.1289Z" fill="#009B78"/>
</svg>
