<svg width="24" height="24" viewBox="0 0 24 24" fill="none" xmlns="http://www.w3.org/2000/svg">
<path d="M12.25 2H11.15C10.82 0.85 9.76 0 8.5 0C7.24 0 6.18 0.85 5.85 2H4.75C4.34 2 4 2.34 4 2.75V4.25C4 5.21 4.79 6 5.75 6H11.25C12.21 6 13 5.21 13 4.25V2.75C13 2.34 12.66 2 12.25 2Z" fill="#009B78"/>
<path d="M14.25 3H14V4.25C14 5.77 12.77 7 11.25 7H5.75C4.23 7 3 5.77 3 4.25V3H2.75C1.23 3 0 4.23 0 5.75V18.25C0 19.77 1.23 21 2.75 21H10.13L10.35 19.77C10.45 19.21 10.71 18.71 11.11 18.3L11.91 17.5H3.75C3.34 17.5 3 17.16 3 16.75C3 16.34 3.34 16 3.75 16H13.25C13.3 16 13.34 16 13.39 16.02H13.4L17 12.42V5.75C17 4.23 15.77 3 14.25 3ZM13.25 14.25H3.75C3.34 14.25 3 13.91 3 13.5C3 13.09 3.34 12.75 3.75 12.75H13.25C13.66 12.75 14 13.09 14 13.5C14 13.91 13.66 14.25 13.25 14.25ZM13.25 11H3.75C3.34 11 3 10.66 3 10.25C3 9.84 3.34 9.5 3.75 9.5H13.25C13.66 9.5 14 9.84 14 10.25C14 10.66 13.66 11 13.25 11ZM12.527 24C12.4173 24.0003 12.309 23.9765 12.2095 23.9302C12.1101 23.8839 12.0221 23.8164 11.9517 23.7323C11.8813 23.6483 11.8302 23.5498 11.8021 23.4438C11.774 23.3378 11.7695 23.2269 11.789 23.119L12.319 20.114C12.3459 19.9626 12.4184 19.823 12.527 19.714L19.952 12.29C20.864 11.376 21.76 11.623 22.25 12.113L23.487 13.35C23.6495 13.5125 23.7784 13.7054 23.8664 13.9178C23.9544 14.1301 23.9996 14.3577 23.9996 14.5875C23.9996 14.8173 23.9544 15.0449 23.8664 15.2572C23.7784 15.4696 23.6495 15.6625 23.487 15.825L16.062 23.25C15.9536 23.3593 15.8137 23.432 15.662 23.458L12.657 23.988C12.6141 23.996 12.5706 24 12.527 24Z" fill="#009B78"/>
</svg>
