<svg width="24" height="24" viewBox="0 0 24 24" fill="none" xmlns="http://www.w3.org/2000/svg">
<g clip-path="url(#clip0_1054_81716)">
<path d="M4.05313 12.0002L1.64708 14.4062C-0.548871 16.6021 -0.549199 20.1566 1.64713 22.3528C3.83764 24.5432 7.4023 24.5439 9.59343 22.3528L11.9995 19.9468L4.05313 12.0002ZM22.3528 1.64725C20.162 -0.543549 16.5973 -0.543549 14.4066 1.64725L12.0005 4.0532L19.9468 11.9998L22.3529 9.59383C24.5488 7.39797 24.5492 3.84339 22.3528 1.64725ZM11.0061 5.04751L5.04749 11.0059L12.9938 18.9525L18.9524 12.9941L11.0061 5.04751ZM9.51932 12.5166C9.24477 12.7912 8.7996 12.7912 8.52505 12.5166C8.2505 12.2421 8.2505 11.7969 8.52505 11.5224C8.7996 11.2478 9.24477 11.2478 9.51932 11.5224C9.79391 11.7969 9.79391 12.2421 9.51932 12.5166ZM12.5072 15.4961C12.2326 15.7706 11.7875 15.7706 11.5129 15.4961C11.2384 15.2215 11.2384 14.7764 11.5129 14.5018C11.7875 14.2273 12.2326 14.2273 12.5072 14.5018C12.7817 14.7764 12.7817 15.2215 12.5072 15.4961ZM11.4869 11.5215C11.7614 11.247 12.2066 11.247 12.4812 11.5215C12.7557 11.7961 12.7557 12.2412 12.4812 12.5158C12.2066 12.7903 11.7614 12.7903 11.4869 12.5158C11.2123 12.2412 11.2123 11.7961 11.4869 11.5215ZM12.5088 9.53214C12.2342 9.80669 11.7891 9.80669 11.5145 9.53214C11.24 9.25759 11.24 8.81242 11.5145 8.53787C11.7891 8.26333 12.2342 8.26333 12.5088 8.53787C12.7833 8.81247 12.7833 9.25759 12.5088 9.53214ZM14.494 12.5117C14.2195 12.2371 14.2195 11.7919 14.494 11.5174C14.7686 11.2428 15.2137 11.2428 15.4883 11.5174C15.7628 11.7919 15.7628 12.2371 15.4883 12.5117C15.2137 12.7862 14.7686 12.7862 14.494 12.5117Z" fill="#009B78"/>
</g>
<defs>
<clipPath id="clip0_1054_81716">
<rect width="24" height="24" fill="white"/>
</clipPath>
</defs>
</svg>
